<?xml version="1.0" encoding="UTF-8"?><svg xmlns="http://www.w3.org/2000/svg" xmlns:xlink="http://www.w3.org/1999/xlink" viewBox="0 0 896.87 231.37"><defs><style>.cls-1{fill:url(#linear-gradient-2);}.cls-2{fill:url(#linear-gradient-15);}.cls-3{fill:url(#linear-gradient-14);}.cls-4{fill:url(#linear-gradient-6);}.cls-5{fill:url(#linear-gradient-11);}.cls-6{fill:url(#linear-gradient-10);}.cls-7{fill:url(#linear-gradient-5);}.cls-8{fill:url(#linear-gradient-7);}.cls-9{fill:url(#linear-gradient-9);}.cls-10{fill:url(#linear-gradient-3);}.cls-11{fill:url(#linear-gradient);}.cls-12{fill:url(#linear-gradient-4);}.cls-13{fill:url(#linear-gradient-8);}.cls-14{fill:url(#linear-gradient-12);}.cls-15{fill:url(#linear-gradient-13);}</style><linearGradient id="linear-gradient" x1="73.38" y1="116.83" x2="823.31" y2="-5.65" gradientTransform="matrix(1, 0, 0, 1, 0, 0)" gradientUnits="userSpaceOnUse"><stop offset="0" stop-color="#2c4d78"/><stop offset=".13" stop-color="#2e4e79"/><stop offset=".22" stop-color="#37537d"/><stop offset=".3" stop-color="#465c84"/><stop offset=".37" stop-color="#5c698e"/><stop offset=".43" stop-color="#777a9c"/><stop offset=".49" stop-color="#998eac"/><stop offset=".54" stop-color="#c1a6bf"/><stop offset=".59" stop-color="#e9bed2"/><stop offset=".83" stop-color="#f4b9a9"/><stop offset="1" stop-color="#e1607e"/></linearGradient><linearGradient id="linear-gradient-2" x1="75.85" y1="131.97" x2="825.78" y2="9.5" xlink:href="#linear-gradient"/><linearGradient id="linear-gradient-3" x1="89.17" y1="213.54" x2="839.1" y2="91.06" xlink:href="#linear-gradient"/><linearGradient id="linear-gradient-4" x1="75.86" y1="132.02" x2="825.79" y2="9.54" xlink:href="#linear-gradient"/><linearGradient id="linear-gradient-5" x1="90.8" y1="223.48" x2="840.72" y2="101" xlink:href="#linear-gradient"/><linearGradient id="linear-gradient-6" x1="93.32" y1="238.94" x2="843.25" y2="116.47" xlink:href="#linear-gradient"/><linearGradient id="linear-gradient-7" x1="79.14" y1="152.1" x2="829.07" y2="29.62" xlink:href="#linear-gradient"/><linearGradient id="linear-gradient-8" x1="96.46" y1="258.16" x2="846.39" y2="135.69" xlink:href="#linear-gradient"/><linearGradient id="linear-gradient-9" x1="102.82" y1="297.11" x2="852.75" y2="174.63" xlink:href="#linear-gradient"/><linearGradient id="linear-gradient-10" x1="101.45" y1="288.69" x2="851.37" y2="166.22" xlink:href="#linear-gradient"/><linearGradient id="linear-gradient-11" x1="83.3" y1="177.56" x2="833.22" y2="55.08" xlink:href="#linear-gradient"/><linearGradient id="linear-gradient-12" x1="87.63" y1="204.1" x2="837.56" y2="81.62" xlink:href="#linear-gradient"/><linearGradient id="linear-gradient-13" x1="98.88" y1="272.95" x2="848.8" y2="150.48" xlink:href="#linear-gradient"/><linearGradient id="linear-gradient-14" x1="96.01" y1="255.4" x2="845.94" y2="132.92" xlink:href="#linear-gradient"/><linearGradient id="linear-gradient-15" x1="87.59" y1="203.83" x2="837.51" y2="81.35" xlink:href="#linear-gradient"/></defs><g id="Layer_16"><path class="cls-11" d="M154.56,178.37c-4.72,20.4-17.31,32.78-22.31,37.21-6.9,4.66-23.64,14.61-47.28,15.69-25.58,1.17-44.3-8.73-51.38-12.96-5.6-3.82-14.16-10.72-21.36-21.83C2.53,181.47,.5,166.84,0,159.54H40.66c.1,3.36,.82,13.63,8.58,22.61,11.81,13.68,29.57,12.4,31.48,12.23,1.57,.22,19.43,2.37,30.39-10.49,4.94-5.79,6.39-12.18,6.87-15.64,.19-3.16,.06-9.28-3.41-15.54-7.33-13.19-22.88-14.86-24.5-15.01-7.57-2.14-18.47-5.64-31.07-11.28-18.27-8.18-27.41-12.26-35.16-21.04C6.5,85.75,8.67,60.29,8.92,57.68c.95-9.8,4.42-20.24,11.67-30.8,4.5-5.27,13.73-14.66,28.49-20.88C66.36-1.3,81.76-.27,88.75,.64c6.99,.38,23.28,2.23,39.36,13.69,12.44,8.87,19.18,19.52,22.4,25.56,1.25,2.76,2.39,6.01,3.46,9.66,1.62,5.54,3.02,12.49,2.16,18.16l-38.18-.24c-.27-2.33-1.99-14.73-13.14-23.38-12.33-9.57-26.35-6.93-28.39-6.5-1.46-.11-13.9-.78-22.46,9.03-6.48,7.42-6.55,16.08-6.51,18.26,.15,1.1,.38,2.15,.66,3.14,3.85,13.38,19.24,19.58,25.16,21.63,7.34,2.33,18.14,6.11,30.75,11.85,24.13,10.99,36.19,16.48,43.97,28.23,3.12,4.71,5.19,9.64,6.53,14.48-16.26-1.66-34.83-5.39-52.91-13,0,0,12.72,20.63,55.04,28.72,.11,8.96-1.54,16.03-2.09,18.45Z"/></g><g id="Layer_15"><path class="cls-1" d="M157.39,144.49c4.22-39.12,36.78-69.55,76.3-69.55,27.84,0,52.23,15.1,65.69,37.7l-34.43,17.08c-6.88-11.01-18.58-18.26-31.85-18.26-18.65,0-34.18,14.29-37.61,33.23-8.22,.66-21.89,1.23-38.09-.21Z"/></g><g id="Layer_14"><path class="cls-10" d="M310.45,153.13c0,43.18-34.37,78.19-76.77,78.19-40.11,0-73.05-31.34-76.47-71.3,10.89,2.04,23.74,3.26,38.8,3.07,4.3,17.67,19.27,30.71,37.08,30.71,20.3,0,36.91-16.93,38.24-38.37l38.68-10.6c.29,2.73,.43,5.49,.43,8.29Z"/></g><g id="Layer_13"><path class="cls-12" d="M356.87,78.31v20.84c-.42,.07-.85,.14-1.26,.2-.03,0-.05,0-.08,0-1.48,.23-2.99,.48-4.49,.73-10.36,1.01-22.91,3.87-32.59,6.4v-28.18h38.42Z"/></g><g id="Layer_12"><path class="cls-7" d="M364.84,131.2s-4.25,5.14-7.98,12.87v83.48h-38.42v-85.03l26.7-7.32,2.88-.79h.04l8.81-1.69,7.98-1.53Z"/></g><g id="Layer_11"><path class="cls-4" d="M463.92,147.74v78.97h-37.58v-90.44l7.95,2s.02,0,.02,0c2.06,.64,4.12,1.31,6.16,1.96,2.56,.82,5.09,1.63,7.48,2.37,5.25,1.66,10.58,3.37,15.97,5.14Z"/></g><g id="Layer_10"><path class="cls-8" d="M463.87,113.95c-1.71-.66-3.46-1.33-5.22-2-7.48-2.87-15.46-5.87-23.06-8.34-9.47-3.03-19.34-4.68-26.04-5.54-6.88-.82-13.99-1.25-21.15-1.27-7.32-.87-14.01-1.26-19.88-1.4,2.81-3.92,9.71-12.41,21.88-17.47,15.84-6.59,30.04-2.99,34.32-1.73,4.78,1.22,16.02,4.78,25.98,15.11,7.92,8.21,11.52,17.05,13.17,22.63Z"/></g><g id="Layer_9"><path class="cls-13" d="M584.59,216.32c-9.09,6.06-15.76,9.21-20.16,10.84-2.23,.83-4.45,1.32-6.53,1.76-5.85,1.19-16.59,2.6-29.43-.48-13.81-3.29-23.22-10.11-27.87-14.01-5.48-4.88-13.89-13.64-20.15-26.92-7.02-14.89-8.09-28.6-7.99-36.92,5.32,1.81,10.65,3.68,15.99,5.65,3.94,10.61,11.37,25.98,25.54,40.23,6.34,6.38,12.74,11.23,18.42,14.88,5.32,2.61,13.8,5.98,24.72,7.16,11.87,1.27,21.56-.59,27.47-2.21Z"/></g><g id="Layer_8"><path class="cls-9" d="M634.79,192.28v35.89s-30.59,2.47-37.99-6.19l-5.43-8.11s28-12.88,35.24-19.6c0,0,6.82-1.78,8.19-1.99Z"/></g><g id="Layer_7"><polygon class="cls-6" points="642.77 183.41 642.77 227.81 681.5 227.81 681.5 160.11 642.77 183.41"/></g><g id="Layer_6"><path class="cls-5" d="M623.56,77.78v82.34l-48.65,23.29c3.79-5.1,8.17-12.44,10.77-22,.8-2.91,1.33-5.66,1.67-8.23,.39-3.85,.68-12.34-3.94-21.25-7.97-15.39-23.98-19.28-26.5-19.84-2.31-.49-16.83-3.3-29.86,6.3-8.08,5.95-11.63,13.76-13.14,18.37-11.29-6.14-23.64-12-37.33-17.7-.95-.53-1.48-.83-1.48-.83-25.03-54.16-46.6-69.27-69.27-66.12-20.82,2.89-43.66,40.65-47.24,46.78-.08,0-.15,.02-.23,.03-.11,.02-.22,.04-.33,.05-.39,.05-.78,.11-1.16,.17-.42,.07-.85,.14-1.26,.2v-8.56l1.26-2.48,9.13-17.93c12.12-25.66,41.4-42.35,69.89-24.72,14.25,8.82,26.17,24.68,34.54,38.34,6.19,10.11,10.49,18.94,13.16,25.11,3.43-5.39,9.96-14.17,20.94-21.72,10.73-7.38,21.03-10.35,27.23-11.65,6.02-.95,16.17-1.78,28.18,1.1,13.07,3.14,22.28,9.23,27.23,13.07v-12.12h36.37Z"/></g><g id="Layer_5"><path class="cls-14" d="M642.77,77.62v71.63s34.01-17.79,42.35-17.32c2.07-3,7.24-9.6,16.53-13.75,10.52-4.7,20.01-3.43,23.54-2.78,4.28-11.7,8.55-23.41,12.83-35.11-3.54-1.39-18.23-6.71-35-.31-13.54,5.16-20.69,15.01-23.09,18.66v-21.02h-37.15Z"/></g><g id="Layer_4"><path class="cls-15" d="M729.88,145.68c-.8,6.45-2.67,28.01,10.71,49.75,11.56,18.78,27.94,27.06,34.27,29.86,4.46,2.13,19.9,8.83,39.41,4.36,19.58-4.5,30.57-17.34,33.64-21.2,1.56,3.83,3.99,8.65,8.6,12.42,6.95,5.69,19.19,10.33,40.36,6.16v-33.53s-17.24,3.54-17.71-12.83l-.47-16.37V78.09h-35.87v13.91c-3.91-3.87-11.49-10.34-22.92-14.2-15.06-5.1-28.06-2.72-33.54-1.38-6.22,1.23-18.46,4.53-30.44,14.27-13.75,11.19-19.47,24.63-21.62,30.65,4.57,.19,9.59,.76,15,1.52,8.23,1.15,17.91,3.1,23.73,6.24,1.88-2.94,7.14-10.3,17.11-14.48,12.83-5.39,24.38-1.71,27.24-.71,2.58,1.03,17.58,7.33,23.77,23.9,4.23,11.31,2.07,21.3,1.05,25.08-.69,3.3-3.36,14.1-13.43,22.25-13.15,10.65-28.5,8.38-30.96,7.98-2.93-.85-16.97-5.25-25.08-19.73-6.49-11.59-5.36-22.77-4.83-26.45-12.66-.42-25.33-.84-37.99-1.26Z"/></g><g id="Layer_3"><path class="cls-3" d="M804.82,149.25c-43.24-21.61-95.91-15.81-136.8,8.3-2.52,1.41-6.18,3.78-8.67,5.34-22.02,13.82-45.03,25.82-68.12,37.68-19.39,9.94-41.75,10.94-60.59-.85-12.71-7.85-22.47-19.25-29.55-32.2-.17-.27-1.74-5.08-2.54-7.46,4.87,1.9,9.72,3.88,14.51,5.95,2.22,.95,4.46,1.94,6.74,2.98,7.46,14.42,18,21.87,35,25.32,12.16,2.55,25.03-1.1,36.07-6.52,21.79-9.92,43.59-19.97,64.45-31.67,2.54-1.44,6.58-3.71,9.17-5.02,43.04-22.53,97.34-26.15,140.33-1.86Z"/></g><g id="Layer_2"><path class="cls-2" d="M558.8,178.64c-13.93-7.55-27.92-14.57-42.25-20.72-21.35-9.23-43.74-16.72-65.94-23.74-10.49-3.22-22.19-7.47-32.98-9.3-16.55-2.99-33.67-3.13-50.41-1.38-1.2,.11-2.39,.25-3.6,.38-2.25,.26-4.51,.55-6.77,.87-12.95,1.84-25.82,4.7-38.42,8.07-.6,.16-1.2,.32-1.8,.49-2.63,.72-5.35,1.53-8.12,2.37-8.54,2.6-17.48,5.57-25.64,7.83-3.8,1.1-7.82,2.14-11.85,3.12-2.05,.5-4.1,.98-6.12,1.45-1.78,.41-3.52,.8-5.25,1.17-18.35,3.75-37.08,6.5-55.82,6.62-1.1,.02-2.2,.02-3.3,0,1.1-.25,2.21-.49,3.3-.76,20.67-4.77,40.98-10.84,60.97-17.88,1.12-.4,2.25-.8,3.37-1.2,1.82-.65,3.64-1.31,5.45-1.98,9.76-3.54,20.57-8.23,30.54-11.93,.82-.31,1.63-.61,2.45-.9,3.9-1.41,7.85-2.75,11.83-4,12.55-3.97,25.41-7.12,38.42-9.13,.9-.14,1.79-.27,2.69-.41,0,0,.03,0,.04,0,16.19-2.29,32.6-2.77,48.92-.83,8.01,1.03,16.71,2.73,24.4,5.19,7.38,2.39,15.35,5.4,22.58,8.17,29.73,11.24,59,24.73,84.75,43.54,6.47,4.61,12.61,9.66,18.56,14.89Z"/></g></svg>